<svg xmlns="http://www.w3.org/2000/svg" viewBox="0 0 24 24" fill="currentColor">
  <path d="M11.5 2.5c-.4 0-.8.1-1.1.4L7.5 5.5H5a1 1 0 0 0-1 1v5c0 .55.45 1 1 1h1.09l2.32 2.32c.56.56 1.32.88 2.09.88h5c.83 0 1.5-.67 1.5-1.5 0-.34-.12-.66-.31-.91.49-.26.81-.77.81-1.34 0-.34-.11-.65-.3-.9.47-.27.8-.77.8-1.35C18 9.27 17.33 8.5 16.5 8.5H14V7c0-1.38-1.12-2.5-2.5-2.5Zm0 1.5c.55 0 1 .45 1 1v3h4c.28 0 .5.22.5.5s-.22.5-.5.5h-1.5v1h1c.28 0 .5.22.5.5s-.22.5-.5.5H15v1h.5c.28 0 .5.22.5.5s-.22.5-.5.5h-5c-.4 0-.78-.16-1.06-.44L7.5 10.17V6.5h1.38l2.5-2.1c.04-.03.08-.04.12-.04v-.03c.003 0 .003.03 0 .03ZM3 6.5v5h1.5v-5H3Z"/>
</svg>
